<?xml version="1.0" encoding="utf-8"?>
<!-- Generator: Adobe Illustrator 15.0.0, SVG Export Plug-In . SVG Version: 6.00 Build 0)  -->
<!DOCTYPE svg PUBLIC "-//W3C//DTD SVG 1.0//EN" "http://www.w3.org/TR/2001/REC-SVG-20010904/DTD/svg10.dtd">
<svg version="1.0" id="Layer_1" xmlns="http://www.w3.org/2000/svg" xmlns:xlink="http://www.w3.org/1999/xlink" x="0px" y="0px"
	 width="1133.859px" height="292.445px" viewBox="0 0 1133.859 292.445" enable-background="new 0 0 1133.859 292.445"
	 xml:space="preserve">
<polygon fill="#175A93" points="131.062,19.205 0,19.205 0,60.477 40.093,60.477 40.093,228.937 88.104,228.937 88.104,60.477 
	126.176,60.477 "/>
<path fill="#175A93" d="M226.579,99.391c-14.193-23.205-37.904-24.763-48.18-24.763c-10.276,0-32.85,1.853-49.022,26.195
	c-7.187,10.816-12.241,26.831-13.435,41.849c-1.778,22.376,2.353,45.812,9.561,59.142c5.59,10.342,12.538,18.264,21.31,23.332
	c11.335,6.549,25.128,8.676,36.808,8.676c20.721,0,42.958-9.602,52.56-17.52l-14.993-29.313c0,0-17.267,13.646-36.051,13.646
	c-17.688,0-26.448-15.836-26.456-37.23h78.973C237.654,163.406,241.861,124.378,226.579,99.391z M198.867,134.81h-40.178
	c0,0-1.895-31.712,19.583-31.712S198.867,134.81,198.867,134.81z"/>
<path fill="#175A93" d="M339.277,117.585l12.634-31.165c0,0-17.688-11.456-45.82-11.456s-53.402,14.993-53.402,46.495
	s26.954,41.611,40.262,47.505c13.308,5.896,25.101,12.467,20.047,22.574s-25.775,10.613-55.76-5.559l-10.445,33.354
	c0,0,27.796,14.488,54.413,14.488s45.795-11.129,52.728-36.725c6.57-24.258-6.983-41.729-26.279-51.21
	c-19.541-9.603-38.577-15.836-35.04-27.965C296.152,105.792,311.986,103.098,339.277,117.585z"/>
<path fill="#175A93" d="M458.378,191.287c-23.753,10.611-31.333,8.338-31.333-9.604c0-7.889,0-38.105,0-69.489h32.091l3.791-32.597
	h-35.882c0-27.306,0-49.274,0-49.274l-43.589,6.823c0,0,0,18.261,0,42.452h-21.352v32.597h21.352c0,28.472,0,57.802,0,73.532
	c0,36.893,19.962,47.885,42.452,47.885s40.936-9.475,40.936-9.475L458.378,191.287z"/>
<path fill="#175A93" d="M1125.393,191.287c-23.753,10.611-31.333,8.338-31.333-9.604c0-7.889,0-38.105,0-69.489h32.091l3.791-32.597
	h-35.882c0-27.306,0-49.274,0-49.274l-43.589,6.823c0,0,0,18.261,0,42.452h-21.353v32.597h21.353c0,28.472,0,57.802,0,73.532
	c0,36.893,19.962,47.885,42.451,47.885s40.936-9.475,40.936-9.475L1125.393,191.287z"/>
<polygon fill="#175A93" points="584.597,57.781 589.946,19.542 526.015,19.542 508.411,19.542 478.594,19.542 478.594,228.095 
	526.015,228.095 526.015,143.274 575.626,143.274 575.626,105.624 526.015,105.624 526.015,57.781 "/>
<path fill="#175A93" d="M642.083,6.57c0,0,0,161.975,0,176.631c0,14.654,5.307,16.803,19.836,10.107l7.834,30.701
	c0,0-14.782,9.729-32.471,9.729s-39.294-7.455-39.294-49.906c0-42.452,0-170.313,0-170.313L642.083,6.57z"/>
<path fill="#175A93" d="M671.143,113.584h15.919v114.72h43.463V79.471h-59.382V113.584z M707.278,55.929
	c14.933,0,27.037-12.521,27.037-27.964C734.315,12.52,722.21,0,707.278,0S680.24,12.52,680.24,27.965
	C680.24,43.408,692.345,55.929,707.278,55.929z"/>
<path fill="#175A93" d="M873.8,108.151c0-9.097,0-23.079,3.874-28.469l-35.713-4.717l-5.728,10.444c0,0-10.445-10.613-30.491-10.613
	c-20.047,0-55.086,12.972-55.086,75.471c0,62.498,26.785,76.311,47.843,76.311c21.057,0,30.322-9.602,30.322-9.602
	s8.086,26.783-4.717,37.566c-7.447,6.273-27.291,5.223-52.56-6.738l-12.466,31.502c0,0,24.932,13.139,56.265,13.139
	c31.334,0,44.979-12.801,51.718-23.078c6.738-10.275,7.58-24.594,7.58-46.326c0-21.73-0.842-31.838-0.842-42.621
	C873.8,169.638,873.8,117.248,873.8,108.151z M829.159,188.337c0,0-8.086,8.76-19.372,8.254
	c-10.267-0.459-15.836-17.014-15.836-38.07c0-21.058,0.337-31.839,5.391-41.947s13.813-14.993,29.817-4.886V188.337z"/>
<path fill="#175A93" d="M1005.705,84.398c-10.444-10.276-30.155-11.792-44.474-7.749c-10.905,3.079-18.483,10.063-21.479,13.219
	V6.823l-42.704,6.317v215.797h42.704V118.648c5.018-6.407,15.052-12.181,20.806-12.181c6.737,0,12.129,3.2,12.129,14.824
	c0,11.624,0,107.982,0,107.982h44.305c0,0,0-98.043,0-105.287C1016.991,116.743,1015.472,94.009,1005.705,84.398z"/>
</svg>
